<?xml version="1.0" encoding="UTF-8"?>
<svg xmlns="http://www.w3.org/2000/svg" xmlns:xlink="http://www.w3.org/1999/xlink" id="Layer_1" data-name="Layer 1" viewBox="0 0 300 300">
  <defs>
    <style>.cls-1,.cls-4{fill:none;}.cls-2,.cls-5,.cls-8{fill:#ffe6e9;}.cls-3{clip-path:url(#clip-path);}.cls-4,.cls-5{stroke:#2a2827;}.cls-4,.cls-5,.cls-8{stroke-linecap:round;stroke-linejoin:round;}.cls-4{stroke-width:4.23px;}.cls-5,.cls-8{stroke-width:4.24px;}.cls-6{fill:#f9bbc4;}.cls-7{clip-path:url(#clip-path-2);}.cls-8{stroke:#ff9fa8;}.cls-9{fill:#2a2827;}</style>
    <clipPath id="clip-path">
      <circle class="cls-1" cx="150.5" cy="150" r="150"></circle>
    </clipPath>
    <clipPath id="clip-path-2">
      <circle class="cls-1" cx="464.5" cy="150" r="150"></circle>
    </clipPath>
  </defs>
  <title>flux-icon-pack</title>
  <circle class="cls-2" cx="150.5" cy="150" r="150"></circle>
  <g class="cls-3">
    <rect class="cls-4" x="-2.47" y="4.39" width="70.23" height="70.23" rx="10.96" ry="10.96"></rect>
    <rect class="cls-4" x="78.63" y="4.39" width="70.23" height="70.23" rx="10.96" ry="10.96"></rect>
    <rect class="cls-4" x="159.74" y="4.39" width="70.23" height="70.23" rx="10.96" ry="10.96"></rect>
    <rect class="cls-4" x="240.85" y="4.39" width="70.23" height="70.23" rx="10.96" ry="10.96"></rect>
    <rect class="cls-4" x="-50.67" y="83.88" width="70.23" height="70.23" rx="10.96" ry="10.96"></rect>
    <rect class="cls-4" x="30.44" y="83.88" width="70.23" height="70.23" rx="10.96" ry="10.96"></rect>
    <rect class="cls-4" x="111.54" y="83.88" width="70.23" height="70.23" rx="10.96" ry="10.96"></rect>
    <rect class="cls-4" x="192.65" y="83.88" width="70.23" height="70.23" rx="10.96" ry="10.96"></rect>
    <rect class="cls-4" x="272.7" y="83.88" width="70.23" height="70.23" rx="10.96" ry="10.96"></rect>
    <rect class="cls-4" x="-15.03" y="161.3" width="70.23" height="70.23" rx="10.96" ry="10.96"></rect>
    <rect class="cls-4" x="66.08" y="161.3" width="70.23" height="70.23" rx="10.96" ry="10.96"></rect>
    <rect class="cls-4" x="147.18" y="161.3" width="70.23" height="70.23" rx="10.96" ry="10.96"></rect>
    <rect class="cls-4" x="228.29" y="161.3" width="70.23" height="70.23" rx="10.96" ry="10.96"></rect>
    <rect class="cls-4" x="-37.8" y="238.72" width="70.23" height="70.23" rx="10.96" ry="10.96"></rect>
    <rect class="cls-4" x="43.3" y="238.72" width="70.23" height="70.23" rx="10.96" ry="10.96"></rect>
    <rect class="cls-4" x="124.41" y="238.72" width="70.23" height="70.23" rx="10.96" ry="10.96"></rect>
    <rect class="cls-4" x="205.52" y="238.72" width="70.23" height="70.23" rx="10.96" ry="10.96"></rect>
    <rect class="cls-4" x="285.57" y="238.72" width="70.23" height="70.23" rx="10.96" ry="10.96"></rect>
  </g>
  <path class="cls-5" d="M196.27,251.16l-14.51-42.81c-1.68-4.95-6.82-6.79-11.76-5.11h0c-4.95,1.68-7.91,6.26-6.23,11.21l14.5,42.8,1.33,3.83,1.29,3.79c8.47,25,35.36,38.7,60.36,30.23h0c25-8.48,38.05-35.78,29.58-60.78l-1.29-3.79-3.81-11.26-17.18-50.62a9.53,9.53,0,0,0-12.05-6h0a9.53,9.53,0,0,0-5.95,12l17.19,50.63-2.31-6.73-16.64-49.11a9.53,9.53,0,0,0-12-5.94h0a9.53,9.53,0,0,0-6,12l16.65,49.11-2.09-6.15-16-47.21a9.53,9.53,0,0,0-12-5.95h0a9.53,9.53,0,0,0-5.95,12l16,47.21-3-8.78-25.41-75a9.53,9.53,0,0,0-12.05-6h0A9.53,9.53,0,0,0,161,147l25.41,75"></path>
  <rect class="cls-6" x="165.9" y="139.01" width="10.56" height="16.81" rx="5.28" ry="5.28" transform="translate(-37.97 62.04) rotate(-18.53)"></rect>
  <rect class="cls-6" x="167.31" y="209.47" width="5.71" height="16.81" rx="2.86" ry="2.86" transform="translate(-60.42 65.38) rotate(-18.53)"></rect>
  <g class="cls-7">
    <rect class="cls-8" x="263.33" y="83.88" width="70.23" height="70.23" rx="10.96" ry="10.96"></rect>
    <rect class="cls-8" x="298.97" y="161.3" width="70.23" height="70.23" rx="10.96" ry="10.96"></rect>
    <rect class="cls-8" x="276.2" y="238.72" width="70.23" height="70.23" rx="10.96" ry="10.96"></rect>
  </g>
  <path class="cls-9" d="M137.54,120.91c-1.14,1.55-2.4,3-3.41,4.65-1.33,2.15,2.06,4.11,3.39,2,.85-1.37,1.87-2.62,2.85-3.9a11.64,11.64,0,0,0,5.82,2.24c.24,1.58.5,3.15.71,4.73a2,2,0,0,0,2,1.95,2,2,0,0,0,1.95-2c-.22-1.68-.5-3.36-.75-5a13.64,13.64,0,0,0,4.77-2.35,29.12,29.12,0,0,0,5.13,4.67,2,2,0,1,0,2-3.38l-.2-.15-.23-.18c-.49-.4-1-.81-1.45-1.23a23.6,23.6,0,0,1-2.46-2.54,11.61,11.61,0,0,0,2.39-7.09c0-2.52-4-2.52-3.91,0a7.94,7.94,0,0,1-1.71,4.87,10,10,0,0,1-1.48,1.57,9.38,9.38,0,0,1-4.31,2.14,7.77,7.77,0,0,1-1.52.16l-.21,0a7.65,7.65,0,0,1-4.57-1.78,11.07,11.07,0,0,1-1.68-1.74,13.14,13.14,0,0,1-2.52-5.86c-.38-2.48-4.15-1.41-3.77,1.06A15.51,15.51,0,0,0,137.54,120.91Z"></path>
</svg>
