<?xml version="1.0" encoding="UTF-8"?>
<svg xmlns="http://www.w3.org/2000/svg" id="Layer_1" data-name="Layer 1" viewBox="0 0 300 300">
  <defs>
    <style>.cls-1{fill:#ffe6e9;}.cls-2{fill:#f9bbc4;}.cls-3{fill:#2a2827;}</style>
  </defs>
  <title>flux-icon-pack</title>
  <circle class="cls-1" cx="149.7" cy="150" r="150"></circle>
  <circle class="cls-2" cx="128.48" cy="37.75" r="10.02"></circle>
  <circle class="cls-2" cx="246.05" cy="228.93" r="25.89"></circle>
  <circle class="cls-2" cx="41.21" cy="94.79" r="17.08"></circle>
  <path class="cls-3" d="M124.49,44.11a10,10,0,1,0-10-10A10,10,0,0,0,124.49,44.11Zm0-16.38a6.4,6.4,0,1,1-6.41,6.39A6.41,6.41,0,0,1,124.49,27.73Z"></path>
  <rect class="cls-2" x="74.51" y="101.98" width="165.17" height="103.08" rx="15.12" ry="15.12"></rect>
  <path class="cls-3" d="M86.35,53.2a2.11,2.11,0,0,0,2.11-2.11V48.33h2.76a2.11,2.11,0,0,0,0-4.22H88.46V41.35a2.11,2.11,0,0,0-4.22,0v2.76H81.48a2.11,2.11,0,0,0,0,4.22h2.76v2.76A2.11,2.11,0,0,0,86.35,53.2Z"></path>
  <path class="cls-3" d="M235.79,76.32a2.1,2.1,0,0,0,2.1-2.1V71.45h2.77a2.11,2.11,0,1,0,0-4.21h-2.77V64.47a2.11,2.11,0,1,0-4.21,0v2.77h-2.77a2.11,2.11,0,0,0,0,4.21h2.77v2.77A2.1,2.1,0,0,0,235.79,76.32Z"></path>
  <path class="cls-3" d="M81.92,197.66H85.4a20.27,20.27,0,1,0,34,0h49.48a27.7,27.7,0,0,1-6.23,4.66l-5,2.75a2.1,2.1,0,0,0,0,3.69l5,2.75a27.7,27.7,0,0,1,11,11l2.74,5a2.11,2.11,0,0,0,3.7,0l2.75-5a27.58,27.58,0,0,1,11-11l5-2.75a2.11,2.11,0,0,0,0-3.69l-5-2.75a27.7,27.7,0,0,1-6.23-4.66h29.83A16.54,16.54,0,0,0,234,181.13v-73a16.55,16.55,0,0,0-16.53-16.53H183.71c0-.23,0-.47,0-.7a30.56,30.56,0,0,0-61.12,0c0,.24,0,.47,0,.7H81.92A16.55,16.55,0,0,0,65.39,108.1v73A16.54,16.54,0,0,0,81.92,197.66Zm20.48,27.05a16.05,16.05,0,1,1,16.06-16.05A16.07,16.07,0,0,1,102.4,224.71ZM191.84,206l1.64.89-1.64.9a31.8,31.8,0,0,0-12.68,12.69l-.9,1.63-.89-1.63a31.88,31.88,0,0,0-12.69-12.69l-1.64-.9,1.64-.89a32,32,0,0,0,12.69-12.69l.89-1.64.9,1.64A31.86,31.86,0,0,0,191.84,206ZM153.17,64.53a26.31,26.31,0,0,1,25.42,33.24l-.33,0a23.31,23.31,0,0,0-22.94,19.35c-.71.06-1.43.11-2.15.11a26.34,26.34,0,1,1,0-52.68Zm47.17,49.13h5.59a4.14,4.14,0,0,1,4.13,4.14v53.63a4.15,4.15,0,0,1-4.13,4.14H151.47a22.85,22.85,0,0,1,5.16-3.87l4.18-2.28a2.11,2.11,0,0,0,0-3.7l-4.18-2.28a22.64,22.64,0,0,1-9-9l-2.28-4.17a2.11,2.11,0,0,0-3.7,0l-2.28,4.17a22.58,22.58,0,0,1-9,9l-4.17,2.28a2.11,2.11,0,0,0,0,3.7l4.17,2.28a22.85,22.85,0,0,1,5.16,3.87H92.74a4.15,4.15,0,0,1-4.14-4.14V117.8a4.15,4.15,0,0,1,4.14-4.14h40a.9.9,0,0,0,.16,0,30.38,30.38,0,0,0,20.31,7.8c.6,0,1.2-.06,1.8-.09a23.3,23.3,0,0,0,46.6-.28A23,23,0,0,0,200.34,113.66Zm-56.42,65-.43.79-.43-.79A26.8,26.8,0,0,0,132.37,168l-.79-.44.79-.43a26.86,26.86,0,0,0,10.69-10.68l.43-.8.43.8a26.86,26.86,0,0,0,10.69,10.68l.79.43-.79.44A26.8,26.8,0,0,0,143.92,178.69Zm34.34-38.54a19.09,19.09,0,1,1,19.09-19.09A19.12,19.12,0,0,1,178.26,140.15ZM69.6,108.1A12.33,12.33,0,0,1,81.92,95.79h41.13A30.36,30.36,0,0,0,129,109.45H92.74a8.35,8.35,0,0,0-8.35,8.35v53.63a8.35,8.35,0,0,0,8.35,8.35h46c.2.32.42.61.6.93l2.28,4.17a2.11,2.11,0,0,0,3.7,0l2.28-4.17c.18-.33.41-.62.6-.93h57.71a8.36,8.36,0,0,0,8.35-8.35V117.8a8.36,8.36,0,0,0-8.35-8.35h-7.49a23.36,23.36,0,0,0-15.61-11.24c.2-.8.37-1.61.5-2.42h34.14a12.33,12.33,0,0,1,12.32,12.31v73a12.33,12.33,0,0,1-12.32,12.31H184.23c-.47-.7-1-1.38-1.37-2.13l-2.75-5a2.19,2.19,0,0,0-3.7,0l-2.74,5a25,25,0,0,1-1.38,2.13H115.76a20.17,20.17,0,0,0-26.72,0l-.07,0h-7A12.33,12.33,0,0,1,69.6,181.13Z"></path>
  <path class="cls-3" d="M102.4,199.86a8.8,8.8,0,0,0-8.79,8.8,2.11,2.11,0,1,0,4.21,0,4.59,4.59,0,0,1,4.58-4.58,2.11,2.11,0,0,0,0-4.22Z"></path>
  <path class="cls-3" d="M175.58,107.3a11,11,0,0,0-11,11,2.11,2.11,0,1,0,4.21,0,6.79,6.79,0,0,1,6.78-6.79,2.11,2.11,0,1,0,0-4.21Z"></path>
  <path class="cls-3" d="M137.15,89.58a16,16,0,0,1,16-16,2.11,2.11,0,1,0,0-4.22,20.26,20.26,0,0,0-20.24,20.24,2.11,2.11,0,0,0,4.22,0Z"></path>
  <path class="cls-3" d="M19.45,91.15a17,17,0,1,0,17-16.93A17,17,0,0,0,19.45,91.15Zm17-13.27A13.28,13.28,0,1,1,23.12,91.15,13.29,13.29,0,0,1,36.4,77.88Z"></path>
  <path class="cls-3" d="M30.83,93a1.82,1.82,0,0,0,1.83-1.83,3.74,3.74,0,0,1,3.74-3.73,1.83,1.83,0,1,0,0-3.66A7.41,7.41,0,0,0,29,91.15,1.82,1.82,0,0,0,30.83,93Z"></path>
  <path class="cls-3" d="M240.92,197.22A26.06,26.06,0,1,0,267,223.27,26.09,26.09,0,0,0,240.92,197.22Zm0,48.44a22.39,22.39,0,1,1,22.4-22.39A22.42,22.42,0,0,1,240.92,245.66Z"></path>
  <path class="cls-3" d="M237.85,208.13a12,12,0,0,0-12,12,1.83,1.83,0,1,0,3.66,0,8.33,8.33,0,0,1,8.33-8.32,1.84,1.84,0,1,0,0-3.67Z"></path>
  <path class="cls-3" d="M188.12,50.44a15.18,15.18,0,0,1,6,6.05l1.57,2.87a1.84,1.84,0,0,0,3.22,0l1.57-2.87a15.1,15.1,0,0,1,6.05-6l2.87-1.57a1.84,1.84,0,0,0,0-3.22l-2.87-1.57a15.16,15.16,0,0,1-6.05-6L199,35.18a1.84,1.84,0,0,0-3.22,0l-1.57,2.87a15.2,15.2,0,0,1-6,6l-2.88,1.57a1.84,1.84,0,0,0,0,3.22Zm9.23-10.57a18.87,18.87,0,0,0,7.4,7.4,18.85,18.85,0,0,0-7.4,7.39,18.85,18.85,0,0,0-7.4-7.39A18.87,18.87,0,0,0,197.35,39.87Z"></path>
  <path class="cls-2" d="M156.8,248.36A22.19,22.19,0,0,1,151.33,238a1.36,1.36,0,0,0-2.66,0,22.2,22.2,0,0,1-16.92,16.92,1.36,1.36,0,0,0,0,2.66,22.18,22.18,0,0,1,16.92,16.92,1.36,1.36,0,0,0,2.66,0,22.18,22.18,0,0,1,16.92-16.92,1.36,1.36,0,0,0,0-2.66,22.17,22.17,0,0,1-6.68-2.65"></path>
  <path class="cls-3" d="M117.42,254.61a1.82,1.82,0,0,0,1.43,1.77,29.48,29.48,0,0,1,22.49,22.49,1.8,1.8,0,0,0,3.53,0,29.51,29.51,0,0,1,22.5-22.49,1.81,1.81,0,0,0,0-3.54,29.13,29.13,0,0,1-8.88-3.52,1.81,1.81,0,0,0-1.86,3.1,32.07,32.07,0,0,0,4.34,2.19,33.17,33.17,0,0,0-17.86,17.86,33.19,33.19,0,0,0-17.87-17.86,33.19,33.19,0,0,0,17.87-17.86,33.11,33.11,0,0,0,6.4,9.91,1.81,1.81,0,1,0,2.64-2.47,29.55,29.55,0,0,1-7.28-13.84,1.81,1.81,0,0,0-3.53,0,29.51,29.51,0,0,1-22.49,22.5A1.8,1.8,0,0,0,117.42,254.61Z"></path>
  <path class="cls-3" d="M67.23,205.73A1.8,1.8,0,0,0,65.81,204a18.84,18.84,0,0,1-14.36-14.36,1.81,1.81,0,0,0-3.53,0A18.83,18.83,0,0,1,33.57,204a1.8,1.8,0,0,0,0,3.53,18.85,18.85,0,0,1,7.65,3.63,1.81,1.81,0,0,0,2.24-2.84,22.77,22.77,0,0,0-4.06-2.56,22.43,22.43,0,0,0,10.29-10.28A22.45,22.45,0,0,0,60,205.73,22.5,22.5,0,0,0,49.69,216a22.09,22.09,0,0,0-1.25-2.22,1.81,1.81,0,0,0-3,2,18.44,18.44,0,0,1,2.53,6.1,1.8,1.8,0,0,0,3.53,0A18.83,18.83,0,0,1,65.81,207.5,1.81,1.81,0,0,0,67.23,205.73Z"></path>
  <path d="M198.86,236.82a3,3,0,0,0-.22-.28,1.88,1.88,0,0,0-2.56,0,2,2,0,0,0-.23.28,1.51,1.51,0,0,0-.16.31,1.93,1.93,0,0,0-.11.34,2.09,2.09,0,0,0,0,.35,1.77,1.77,0,0,0,.14.69,2,2,0,0,0,.4.59,1.79,1.79,0,0,0,1.27.53,1.83,1.83,0,0,0,1.29-.53,1.76,1.76,0,0,0,.38-.59,1.61,1.61,0,0,0,.14-.69,1.39,1.39,0,0,0,0-.35,1,1,0,0,0-.1-.34A1.3,1.3,0,0,0,198.86,236.82Z"></path>
  <path d="M43.71,147.13a1.49,1.49,0,0,0-.23-.27,1.44,1.44,0,0,0-.27-.22,2.48,2.48,0,0,0-.31-.18,3.37,3.37,0,0,0-.34-.09,1.65,1.65,0,0,0-.7,0,3.58,3.58,0,0,0-.35.09,1.92,1.92,0,0,0-.31.18,2.69,2.69,0,0,0-.28.22,2,2,0,0,0-.22.27,1.37,1.37,0,0,0-.16.32,1,1,0,0,0-.1.34,1.34,1.34,0,0,0,0,.35,1.9,1.9,0,0,0,.52,1.28,1.83,1.83,0,0,0,1.29.53,1.79,1.79,0,0,0,1.27-.53,1.76,1.76,0,0,0,.54-1.28,2,2,0,0,0,0-.35,2.37,2.37,0,0,0-.27-.66Z"></path>
  <path d="M263,166.57a1.44,1.44,0,0,0-.22-.27,2,2,0,0,0-.28-.23,1.87,1.87,0,0,0-.31-.17l-.34-.1a1.65,1.65,0,0,0-.7,0l-.35.1a2.28,2.28,0,0,0-.3.17,2,2,0,0,0-.28.23,2,2,0,0,0-.23.27,2.29,2.29,0,0,0-.16.31,1.33,1.33,0,0,0-.1.34,1.39,1.39,0,0,0,0,.35,1.82,1.82,0,0,0,.14.7,1.73,1.73,0,0,0,.39.59,1.82,1.82,0,0,0,1.28.52,1.86,1.86,0,0,0,1.28-.52,1.83,1.83,0,0,0,.53-1.29,2.09,2.09,0,0,0,0-.35,1.35,1.35,0,0,0-.11-.34A1.53,1.53,0,0,0,263,166.57Z"></path>
  <path class="cls-3" d="M260.13,93.54a1.81,1.81,0,0,0-3.54,0,12,12,0,0,1-9.11,9.12,1.81,1.81,0,0,0,0,3.53,12,12,0,0,1,9.12,9.12,1.81,1.81,0,0,0,3.54,0,12,12,0,0,1,9.11-9.12,1.8,1.8,0,0,0,0-3.53A12,12,0,0,1,260.13,93.54ZM258.36,110a15.57,15.57,0,0,0-5.59-5.58,15.6,15.6,0,0,0,5.59-5.59,15.65,15.65,0,0,0,5.58,5.59A15.62,15.62,0,0,0,258.36,110Z"></path>
  <path class="cls-3" d="M273.58,103.44a2,2,0,0,0,.23.28,2,2,0,0,0,.58.39,1.84,1.84,0,0,0,.69.13,1.82,1.82,0,0,0,.7-.13,2.24,2.24,0,0,0,.59-.39,1.93,1.93,0,0,0,.22-.28,1.82,1.82,0,0,0,.16-.31,1,1,0,0,0,.1-.33,1.64,1.64,0,0,0,0-.72,1,1,0,0,0-.1-.33,1.91,1.91,0,0,0-.16-.32,2,2,0,0,0-.22-.27,1.86,1.86,0,0,0-2.56,0,1.49,1.49,0,0,0-.23.27,1.91,1.91,0,0,0-.16.32,1.83,1.83,0,0,0-.11.33,1.64,1.64,0,0,0,0,.72c0,.11.06.22.1.33A1.87,1.87,0,0,0,273.58,103.44Z"></path>
</svg>
