<?xml version="1.0" encoding="UTF-8"?>
<!-- Generator: Adobe Illustrator 22.1.0, SVG Export Plug-In . SVG Version: 6.00 Build 0)  -->
<svg xmlns="http://www.w3.org/2000/svg" xmlns:xlink="http://www.w3.org/1999/xlink" version="1.1" id="Layer_1" x="0px" y="0px" viewBox="0 0 300 300" style="enable-background:new 0 0 300 300;" xml:space="preserve">
<style type="text/css">
	.st0{fill:#FFE6E9;}
	.st1{fill:#F9BBC4;}
	.st2{fill:none;stroke:#2A2827;stroke-width:4.24;stroke-linecap:round;stroke-linejoin:round;}
	.st3{fill:none;stroke:#2A2827;stroke-width:3.38;stroke-linecap:round;stroke-linejoin:round;}
</style>
<title>flux-icon-pack</title>
<circle class="st0" cx="150" cy="150" r="150"></circle>
<path class="st1" d="M239.5,120.5c0,8.3-11.1,14.8-13.5,22.3c-2.5,7.8,2.6,19.5-2.2,25.9s-17.5,5.3-24,10.1s-9.2,17.2-17,19.8  c-7.5,2.4-17-6-25.4-6s-17.9,8.4-25.4,6c-7.8-2.5-10.5-15-17-19.8s-19.3-3.5-24-10.1s0.4-18.2-2.2-25.9  c-2.4-7.5-13.5-13.9-13.5-22.3S86.6,105.7,89,98.2c2.5-7.8-2.6-19.5,2.2-25.9s17.5-5.3,24-10.1s9.2-17.2,17-19.8  c7.5-2.4,17,6,25.4,6s17.9-8.4,25.4-6c7.8,2.5,10.5,15,17,19.8s19.3,3.5,24,10.1s-0.4,18.2,2.2,25.9  C228.4,105.7,239.5,112.2,239.5,120.5z"></path>
<path class="st1" d="M85.3,179.5l-24,71l22-18c0,0,5,28,5,27s22-62,22-62"></path>
<path class="st1" d="M215.4,179.5l24,71l-22-18c0,0-5,28-5,27s-22-62-22-62"></path>
<path class="st2" d="M226.4,115.5c0,8.3-11.1,14.8-13.5,22.3c-2.5,7.8,2.6,19.5-2.1,25.9s-17.5,5.3-24,10.1s-9.2,17.2-17,19.8  c-7.5,2.4-17-6-25.4-6s-17.8,8.4-25.3,6c-7.8-2.5-10.5-15-17-19.8s-19.3-3.5-24-10.1s0.4-18.2-2.2-25.9  c-2.4-7.5-13.5-13.9-13.5-22.3s11.1-14.8,13.5-22.3c2.5-7.8-2.6-19.5,2.1-25.9s17.5-5.3,24-10.1s9.2-17.2,17-19.8  c7.5-2.4,17,6,25.3,6s17.9-8.4,25.4-6c7.8,2.5,10.5,15,17,19.8s19.3,3.5,24,10.1s-0.4,18.2,2.1,25.9  C215.3,100.7,226.4,107.2,226.4,115.5z"></path>
<path class="st2" d="M80.3,174.5l-24,71l22-18c0,0,5,28,5,27s22-62,22-62"></path>
<path class="st2" d="M207.4,174.5l24,71l-22-18c0,0-5,28-5,27s-22-62-22-62"></path>
<path class="st3" d="M188.3,101.8c-7.7,15.9-25,26.7-44.8,26.2s-36.5-12.2-43.5-28.4"></path>
<line class="st3" x1="143.5" y1="128.1" x2="143.1" y2="146.9"></line>
<line class="st3" x1="134.3" y1="128" x2="131.9" y2="140.7"></line>
<line class="st3" x1="118.7" y1="121.6" x2="112" y2="132.7"></line>
<line class="st3" x1="106.1" y1="110.6" x2="96" y2="118.8"></line>
<line class="st3" x1="101.2" y1="104.5" x2="84.6" y2="113.6"></line>
<line class="st3" x1="112.2" y1="116.8" x2="99.8" y2="131"></line>
<line class="st3" x1="125.8" y1="125" x2="118.9" y2="142.5"></line>
<line class="st3" x1="152.8" y1="128.4" x2="154.6" y2="141.3"></line>
<line class="st3" x1="168.7" y1="122.8" x2="174.8" y2="134.3"></line>
<line class="st3" x1="181.8" y1="112.5" x2="191.4" y2="121.2"></line>
<line class="st3" x1="187" y1="106.7" x2="203.1" y2="116.5"></line>
<line class="st3" x1="175.3" y1="118.4" x2="187.1" y2="133.1"></line>
<line class="st3" x1="161.4" y1="125.8" x2="167.4" y2="143.7"></line>
</svg>
